<svg width="50" height="50" viewBox="0 0 50 50" fill="none" xmlns="http://www.w3.org/2000/svg">
<path d="M24.9999 0C11.1931 0 0 11.1931 0 25.0001C0 38.8078 11.1931 50 24.9999 50C38.8081 50 50 38.8078 50 25.0001C50 11.194 38.8084 0 24.9999 0ZM36.4646 36.0574C36.0168 36.7918 35.0556 37.0247 34.3212 36.5739C28.4515 32.9884 21.0622 32.1764 12.3601 34.1647C11.5215 34.3557 10.6856 33.8303 10.4945 32.9914C10.3026 32.1525 10.8259 31.3166 11.6666 31.1255C21.1897 28.9498 29.3584 29.8866 35.9482 33.9139C36.6826 34.3647 36.9154 35.323 36.4646 36.0574ZM39.5246 29.2501C38.9603 30.1672 37.7602 30.4568 36.8438 29.8926C30.1238 25.762 19.8804 24.5658 11.932 26.9786C10.9011 27.2899 9.8124 26.709 9.49954 25.6799C9.18907 24.6491 9.77031 23.5624 10.7993 23.2489C19.8786 20.494 31.1657 21.8285 38.8827 26.5708C39.7992 27.135 40.0888 28.3348 39.5246 29.2501ZM39.7873 22.1617C31.7299 17.3758 18.4364 16.9357 10.7435 19.2706C9.5082 19.6453 8.20183 18.9479 7.82747 17.7125C7.45312 16.4766 8.14989 15.1711 9.3861 14.7955C18.2169 12.1147 32.8972 12.6326 42.1737 18.1398C43.2872 18.7992 43.6515 20.2343 42.9917 21.344C42.3349 22.4551 40.8948 22.8214 39.7873 22.1617Z" fill="#57B65F"/>
</svg>
